<?xml version="1.0" encoding="UTF-8" standalone="no"?>
<!-- Created with Inkscape (http://www.inkscape.org/) -->

<svg
   xmlns:dc="http://purl.org/dc/elements/1.1/"
   xmlns:cc="http://creativecommons.org/ns#"
   xmlns:rdf="http://www.w3.org/1999/02/22-rdf-syntax-ns#"
   xmlns:svg="http://www.w3.org/2000/svg"
   xmlns="http://www.w3.org/2000/svg"
   xmlns:xlink="http://www.w3.org/1999/xlink"
   version="1.1"
   width="744.09448"
   height="1052.3622"
   id="svg3110">
  <defs
     id="defs3112">
    <linearGradient
       id="linearGradient3307">
      <stop
         id="stop3309"
         style="stop-color:#ffffff;stop-opacity:0"
         offset="0" />
      <stop
         id="stop3315"
         style="stop-color:#b6b6b6;stop-opacity:1"
         offset="0.00000005" />
      <stop
         id="stop3311"
         style="stop-color:#999999;stop-opacity:0"
         offset="1" />
    </linearGradient>
    <clipPath
       id="clipPath18">
      <path
         d="M 0,2125.99 0,0 l 2125.99,0 0,2125.99 -2125.99,0 z"
         id="path20" />
    </clipPath>
    <radialGradient
       cx="377.85715"
       cy="604.24847"
       r="77.85714"
       fx="377.85715"
       fy="604.24847"
       id="radialGradient4089"
       xlink:href="#linearGradient3307"
       gradientUnits="userSpaceOnUse"
       gradientTransform="matrix(0.76954107,0.04508763,-0.01692664,0.28889839,97.308447,409.68764)" />
  </defs>
  <metadata
     id="metadata3115">
    <rdf:RDF>
      <cc:Work
         rdf:about="">
        <dc:format>image/svg+xml</dc:format>
        <dc:type
           rdf:resource="http://purl.org/dc/dcmitype/StillImage" />
        <dc:title></dc:title>
      </cc:Work>
    </rdf:RDF>
  </metadata>
  <g
     id="layer1">
    <path
       d="m 453.57143,599.86218 a 77.85714,25.357143 0 1 1 -155.71428,0 77.85714,25.357143 0 1 1 155.71428,0 z"
       transform="matrix(1.3027523,0,0,2.3380282,-120.17694,-830.84678)"
       id="path3305"
       style="opacity:0.6;fill:url(#radialGradient4089);fill-opacity:1;stroke:none" />
    <g
       id="g3300"
       style="stroke:none">
      <path
         d="m 328.03572,454.32647 91.42857,11.07143 46.07142,29.28572 -19.28571,35 -122.14286,-20.00001 z"
         id="path3078"
         style="fill:#eeffaa;stroke:none" />
      <path
         d="m 389.46429,610.3979 13.92857,-13.21428 16.42857,-1.42858 45.71429,-100.35714 -25.35714,7.5 -20.95788,17.19643 z"
         id="path3074"
         style="fill:#eeffaa;stroke:none" />
      <path
         d="m 284.46429,478.25504 31.78571,-9.64285 11.42857,-12.85715 -1.78572,46.42858 z"
         id="path3076"
         style="fill:#ddff55;stroke:none" />
    </g>
    <g
       transform="matrix(0.02967234,0.00704192,0.00767255,-0.03232964,330.80726,525.18247)"
       id="g12">
      <g
         id="g14">
        <g
           clip-path="url(#clipPath18)"
           id="g16">
          <path
             d="M 609.363,260.988 C 594.934,236.961 580.535,224.93 558.887,224.93 l -40.879,0 c -31.25,0 -57.696,33.66 -38.465,67.32 l 1026.217,1579.7 c 14.4,24.03 31.24,36.08 52.85,36.08 l 36.09,0 c 31.28,0 55.31,-33.68 38.49,-67.32 L 609.363,260.988"
             id="path22"
             style="fill:#e61d25;fill-opacity:1;fill-rule:nonzero;stroke:none" />
          <path
             d="m 1540.35,394.25 c 64.24,0 113.79,55.031 121.14,118.25 10.56,84.309 10.56,157.719 0,242.02 -7.35,63.23 -56.9,112.351 -121.14,112.351 l -119.53,0 c -6.32,0 -10.53,-4.223 -10.53,-10.543 l 0,-451.539 c 0,-6.32 4.21,-10.539 10.53,-10.539 4.2,0 119.53,0 119.53,0 z m -253.72,-99.672 0,671.961 c 0,11.602 9.46,21.07 21.08,21.07 l 256.18,0 c 122.19,0 206.5,-90.218 221.27,-212.461 10.55,-84.308 9.5,-198.976 0,-283.289 C 1771.46,370.68 1686.08,273.52 1563.89,273.52 l -256.18,0 c -11.62,0 -21.08,9.5 -21.08,21.058"
             id="path24"
             style="fill:#e61d25;fill-opacity:1;fill-rule:nonzero;stroke:none" />
          <path
             d="m 741.738,1341.52 c -9.636,-67.33 -60.117,-122.62 -134.66,-122.62 -86.551,0 -125.047,67.32 -134.644,122.62 -12.024,74.54 -12.024,168.31 0,247.66 9.597,64.92 60.105,117.82 134.644,117.82 86.555,0 127.434,-67.33 134.66,-117.82 12.012,-79.35 12.012,-173.12 0,-247.66 z m 134.649,242.86 c -19.239,153.88 -125.059,252.45 -269.309,252.45 -158.68,0 -254.871,-122.62 -271.719,-252.45 -11.98,-96.19 -11.98,-144.27 0,-240.46 19.27,-156.29 127.434,-252.46 271.719,-252.46 158.684,0 254.875,120.22 269.309,252.46 12.011,96.19 12.011,144.27 0,240.46"
             id="path26"
             style="fill:#e61d25;fill-opacity:1;fill-rule:nonzero;stroke:none" />
        </g>
      </g>
    </g>
    <g
       transform="matrix(0.01264057,0.0029999,0.00326855,-0.01377261,386.02464,522.52438)"
       id="g3180">
      <g
         id="g3182">
        <g
           clip-path="url(#clipPath18)"
           id="g3184">
          <path
             d="M 609.363,260.988 C 594.934,236.961 580.535,224.93 558.887,224.93 l -40.879,0 c -31.25,0 -57.696,33.66 -38.465,67.32 l 1026.217,1579.7 c 14.4,24.03 31.24,36.08 52.85,36.08 l 36.09,0 c 31.28,0 55.31,-33.68 38.49,-67.32 L 609.363,260.988"
             id="path3186"
             style="fill:#e61d25;fill-opacity:1;fill-rule:nonzero;stroke:none" />
          <path
             d="m 1540.35,394.25 c 64.24,0 113.79,55.031 121.14,118.25 10.56,84.309 10.56,157.719 0,242.02 -7.35,63.23 -56.9,112.351 -121.14,112.351 l -119.53,0 c -6.32,0 -10.53,-4.223 -10.53,-10.543 l 0,-451.539 c 0,-6.32 4.21,-10.539 10.53,-10.539 4.2,0 119.53,0 119.53,0 z m -253.72,-99.672 0,671.961 c 0,11.602 9.46,21.07 21.08,21.07 l 256.18,0 c 122.19,0 206.5,-90.218 221.27,-212.461 10.55,-84.308 9.5,-198.976 0,-283.289 C 1771.46,370.68 1686.08,273.52 1563.89,273.52 l -256.18,0 c -11.62,0 -21.08,9.5 -21.08,21.058"
             id="path3188"
             style="fill:#e61d25;fill-opacity:1;fill-rule:nonzero;stroke:none" />
          <path
             d="m 741.738,1341.52 c -9.636,-67.33 -60.117,-122.62 -134.66,-122.62 -86.551,0 -125.047,67.32 -134.644,122.62 -12.024,74.54 -12.024,168.31 0,247.66 9.597,64.92 60.105,117.82 134.644,117.82 86.555,0 127.434,-67.33 134.66,-117.82 12.012,-79.35 12.012,-173.12 0,-247.66 z m 134.649,242.86 c -19.239,153.88 -125.059,252.45 -269.309,252.45 -158.68,0 -254.871,-122.62 -271.719,-252.45 -11.98,-96.19 -11.98,-144.27 0,-240.46 19.27,-156.29 127.434,-252.46 271.719,-252.46 158.684,0 254.875,120.22 269.309,252.46 12.011,96.19 12.011,144.27 0,240.46"
             id="path3190"
             style="fill:#e61d25;fill-opacity:1;fill-rule:nonzero;stroke:none" />
        </g>
      </g>
    </g>
    <path
       d="m 285.17858,478.61219 c 2.14285,1.78571 47.5,28.21428 47.5,28.21428 l 86.78571,13.57143 -29.64286,89.64286 -66.78571,-23.92857 z"
       id="path3072"
       style="fill:#f6ffd5;stroke:none" />
    <g
       transform="matrix(0.00786269,0.001866,0.0020331,-0.00856684,338.61036,466.90083)"
       id="g3192">
      <g
         id="g3194">
        <g
           clip-path="url(#clipPath18)"
           id="g3196">
          <path
             d="M 609.363,260.988 C 594.934,236.961 580.535,224.93 558.887,224.93 l -40.879,0 c -31.25,0 -57.696,33.66 -38.465,67.32 l 1026.217,1579.7 c 14.4,24.03 31.24,36.08 52.85,36.08 l 36.09,0 c 31.28,0 55.31,-33.68 38.49,-67.32 L 609.363,260.988"
             id="path3198"
             style="fill:#e61d25;fill-opacity:1;fill-rule:nonzero;stroke:none" />
          <path
             d="m 1540.35,394.25 c 64.24,0 113.79,55.031 121.14,118.25 10.56,84.309 10.56,157.719 0,242.02 -7.35,63.23 -56.9,112.351 -121.14,112.351 l -119.53,0 c -6.32,0 -10.53,-4.223 -10.53,-10.543 l 0,-451.539 c 0,-6.32 4.21,-10.539 10.53,-10.539 4.2,0 119.53,0 119.53,0 z m -253.72,-99.672 0,671.961 c 0,11.602 9.46,21.07 21.08,21.07 l 256.18,0 c 122.19,0 206.5,-90.218 221.27,-212.461 10.55,-84.308 9.5,-198.976 0,-283.289 C 1771.46,370.68 1686.08,273.52 1563.89,273.52 l -256.18,0 c -11.62,0 -21.08,9.5 -21.08,21.058"
             id="path3200"
             style="fill:#e61d25;fill-opacity:1;fill-rule:nonzero;stroke:none" />
          <path
             d="m 741.738,1341.52 c -9.636,-67.33 -60.117,-122.62 -134.66,-122.62 -86.551,0 -125.047,67.32 -134.644,122.62 -12.024,74.54 -12.024,168.31 0,247.66 9.597,64.92 60.105,117.82 134.644,117.82 86.555,0 127.434,-67.33 134.66,-117.82 12.012,-79.35 12.012,-173.12 0,-247.66 z m 134.649,242.86 c -19.239,153.88 -125.059,252.45 -269.309,252.45 -158.68,0 -254.871,-122.62 -271.719,-252.45 -11.98,-96.19 -11.98,-144.27 0,-240.46 19.27,-156.29 127.434,-252.46 271.719,-252.46 158.684,0 254.875,120.22 269.309,252.46 12.011,96.19 12.011,144.27 0,240.46"
             id="path3202"
             style="fill:#e61d25;fill-opacity:1;fill-rule:nonzero;stroke:none" />
        </g>
      </g>
    </g>
    <g
       transform="matrix(0.01069483,0.00253813,0.00276543,-0.0116526,379.07765,466.67769)"
       id="g3204">
      <g
         id="g3206">
        <g
           clip-path="url(#clipPath18)"
           id="g3208">
          <path
             d="M 609.363,260.988 C 594.934,236.961 580.535,224.93 558.887,224.93 l -40.879,0 c -31.25,0 -57.696,33.66 -38.465,67.32 l 1026.217,1579.7 c 14.4,24.03 31.24,36.08 52.85,36.08 l 36.09,0 c 31.28,0 55.31,-33.68 38.49,-67.32 L 609.363,260.988"
             id="path3210"
             style="fill:#e61d25;fill-opacity:1;fill-rule:nonzero;stroke:none" />
          <path
             d="m 1540.35,394.25 c 64.24,0 113.79,55.031 121.14,118.25 10.56,84.309 10.56,157.719 0,242.02 -7.35,63.23 -56.9,112.351 -121.14,112.351 l -119.53,0 c -6.32,0 -10.53,-4.223 -10.53,-10.543 l 0,-451.539 c 0,-6.32 4.21,-10.539 10.53,-10.539 4.2,0 119.53,0 119.53,0 z m -253.72,-99.672 0,671.961 c 0,11.602 9.46,21.07 21.08,21.07 l 256.18,0 c 122.19,0 206.5,-90.218 221.27,-212.461 10.55,-84.308 9.5,-198.976 0,-283.289 C 1771.46,370.68 1686.08,273.52 1563.89,273.52 l -256.18,0 c -11.62,0 -21.08,9.5 -21.08,21.058"
             id="path3212"
             style="fill:#e61d25;fill-opacity:1;fill-rule:nonzero;stroke:none" />
          <path
             d="m 741.738,1341.52 c -9.636,-67.33 -60.117,-122.62 -134.66,-122.62 -86.551,0 -125.047,67.32 -134.644,122.62 -12.024,74.54 -12.024,168.31 0,247.66 9.597,64.92 60.105,117.82 134.644,117.82 86.555,0 127.434,-67.33 134.66,-117.82 12.012,-79.35 12.012,-173.12 0,-247.66 z m 134.649,242.86 c -19.239,153.88 -125.059,252.45 -269.309,252.45 -158.68,0 -254.871,-122.62 -271.719,-252.45 -11.98,-96.19 -11.98,-144.27 0,-240.46 19.27,-156.29 127.434,-252.46 271.719,-252.46 158.684,0 254.875,120.22 269.309,252.46 12.011,96.19 12.011,144.27 0,240.46"
             id="path3214"
             style="fill:#e61d25;fill-opacity:1;fill-rule:nonzero;stroke:none" />
        </g>
      </g>
    </g>
    <g
       transform="matrix(0.00554942,0.001317,0.00143495,-0.00604639,335.79085,504.0831)"
       id="g3216">
      <g
         id="g3218">
        <g
           clip-path="url(#clipPath18)"
           id="g3220">
          <path
             d="M 609.363,260.988 C 594.934,236.961 580.535,224.93 558.887,224.93 l -40.879,0 c -31.25,0 -57.696,33.66 -38.465,67.32 l 1026.217,1579.7 c 14.4,24.03 31.24,36.08 52.85,36.08 l 36.09,0 c 31.28,0 55.31,-33.68 38.49,-67.32 L 609.363,260.988"
             id="path3222"
             style="fill:#e61d25;fill-opacity:1;fill-rule:nonzero;stroke:none" />
          <path
             d="m 1540.35,394.25 c 64.24,0 113.79,55.031 121.14,118.25 10.56,84.309 10.56,157.719 0,242.02 -7.35,63.23 -56.9,112.351 -121.14,112.351 l -119.53,0 c -6.32,0 -10.53,-4.223 -10.53,-10.543 l 0,-451.539 c 0,-6.32 4.21,-10.539 10.53,-10.539 4.2,0 119.53,0 119.53,0 z m -253.72,-99.672 0,671.961 c 0,11.602 9.46,21.07 21.08,21.07 l 256.18,0 c 122.19,0 206.5,-90.218 221.27,-212.461 10.55,-84.308 9.5,-198.976 0,-283.289 C 1771.46,370.68 1686.08,273.52 1563.89,273.52 l -256.18,0 c -11.62,0 -21.08,9.5 -21.08,21.058"
             id="path3224"
             style="fill:#e61d25;fill-opacity:1;fill-rule:nonzero;stroke:none" />
          <path
             d="m 741.738,1341.52 c -9.636,-67.33 -60.117,-122.62 -134.66,-122.62 -86.551,0 -125.047,67.32 -134.644,122.62 -12.024,74.54 -12.024,168.31 0,247.66 9.597,64.92 60.105,117.82 134.644,117.82 86.555,0 127.434,-67.33 134.66,-117.82 12.012,-79.35 12.012,-173.12 0,-247.66 z m 134.649,242.86 c -19.239,153.88 -125.059,252.45 -269.309,252.45 -158.68,0 -254.871,-122.62 -271.719,-252.45 -11.98,-96.19 -11.98,-144.27 0,-240.46 19.27,-156.29 127.434,-252.46 271.719,-252.46 158.684,0 254.875,120.22 269.309,252.46 12.011,96.19 12.011,144.27 0,240.46"
             id="path3226"
             style="fill:#e61d25;fill-opacity:1;fill-rule:nonzero;stroke:none" />
        </g>
      </g>
    </g>
    <g
       transform="matrix(0.01032731,0.0024509,0.0026704,-0.01125216,316.41941,487.63523)"
       id="g3228">
      <g
         id="g3230">
        <g
           clip-path="url(#clipPath18)"
           id="g3232">
          <path
             d="M 609.363,260.988 C 594.934,236.961 580.535,224.93 558.887,224.93 l -40.879,0 c -31.25,0 -57.696,33.66 -38.465,67.32 l 1026.217,1579.7 c 14.4,24.03 31.24,36.08 52.85,36.08 l 36.09,0 c 31.28,0 55.31,-33.68 38.49,-67.32 L 609.363,260.988"
             id="path3234"
             style="fill:#e61d25;fill-opacity:1;fill-rule:nonzero;stroke:none" />
          <path
             d="m 1540.35,394.25 c 64.24,0 113.79,55.031 121.14,118.25 10.56,84.309 10.56,157.719 0,242.02 -7.35,63.23 -56.9,112.351 -121.14,112.351 l -119.53,0 c -6.32,0 -10.53,-4.223 -10.53,-10.543 l 0,-451.539 c 0,-6.32 4.21,-10.539 10.53,-10.539 4.2,0 119.53,0 119.53,0 z m -253.72,-99.672 0,671.961 c 0,11.602 9.46,21.07 21.08,21.07 l 256.18,0 c 122.19,0 206.5,-90.218 221.27,-212.461 10.55,-84.308 9.5,-198.976 0,-283.289 C 1771.46,370.68 1686.08,273.52 1563.89,273.52 l -256.18,0 c -11.62,0 -21.08,9.5 -21.08,21.058"
             id="path3236"
             style="fill:#e61d25;fill-opacity:1;fill-rule:nonzero;stroke:none" />
          <path
             d="m 741.738,1341.52 c -9.636,-67.33 -60.117,-122.62 -134.66,-122.62 -86.551,0 -125.047,67.32 -134.644,122.62 -12.024,74.54 -12.024,168.31 0,247.66 9.597,64.92 60.105,117.82 134.644,117.82 86.555,0 127.434,-67.33 134.66,-117.82 12.012,-79.35 12.012,-173.12 0,-247.66 z m 134.649,242.86 c -19.239,153.88 -125.059,252.45 -269.309,252.45 -158.68,0 -254.871,-122.62 -271.719,-252.45 -11.98,-96.19 -11.98,-144.27 0,-240.46 19.27,-156.29 127.434,-252.46 271.719,-252.46 158.684,0 254.875,120.22 269.309,252.46 12.011,96.19 12.011,144.27 0,240.46"
             id="path3238"
             style="fill:#e61d25;fill-opacity:1;fill-rule:nonzero;stroke:none" />
        </g>
      </g>
    </g>
    <g
       transform="matrix(0.00716439,0.00170027,0.00185254,-0.00780599,399.55971,490.38443)"
       id="g3240">
      <g
         id="g3242">
        <g
           clip-path="url(#clipPath18)"
           id="g3244">
          <path
             d="M 609.363,260.988 C 594.934,236.961 580.535,224.93 558.887,224.93 l -40.879,0 c -31.25,0 -57.696,33.66 -38.465,67.32 l 1026.217,1579.7 c 14.4,24.03 31.24,36.08 52.85,36.08 l 36.09,0 c 31.28,0 55.31,-33.68 38.49,-67.32 L 609.363,260.988"
             id="path3246"
             style="fill:#e61d25;fill-opacity:1;fill-rule:nonzero;stroke:none" />
          <path
             d="m 1540.35,394.25 c 64.24,0 113.79,55.031 121.14,118.25 10.56,84.309 10.56,157.719 0,242.02 -7.35,63.23 -56.9,112.351 -121.14,112.351 l -119.53,0 c -6.32,0 -10.53,-4.223 -10.53,-10.543 l 0,-451.539 c 0,-6.32 4.21,-10.539 10.53,-10.539 4.2,0 119.53,0 119.53,0 z m -253.72,-99.672 0,671.961 c 0,11.602 9.46,21.07 21.08,21.07 l 256.18,0 c 122.19,0 206.5,-90.218 221.27,-212.461 10.55,-84.308 9.5,-198.976 0,-283.289 C 1771.46,370.68 1686.08,273.52 1563.89,273.52 l -256.18,0 c -11.62,0 -21.08,9.5 -21.08,21.058"
             id="path3248"
             style="fill:#e61d25;fill-opacity:1;fill-rule:nonzero;stroke:none" />
          <path
             d="m 741.738,1341.52 c -9.636,-67.33 -60.117,-122.62 -134.66,-122.62 -86.551,0 -125.047,67.32 -134.644,122.62 -12.024,74.54 -12.024,168.31 0,247.66 9.597,64.92 60.105,117.82 134.644,117.82 86.555,0 127.434,-67.33 134.66,-117.82 12.012,-79.35 12.012,-173.12 0,-247.66 z m 134.649,242.86 c -19.239,153.88 -125.059,252.45 -269.309,252.45 -158.68,0 -254.871,-122.62 -271.719,-252.45 -11.98,-96.19 -11.98,-144.27 0,-240.46 19.27,-156.29 127.434,-252.46 271.719,-252.46 158.684,0 254.875,120.22 269.309,252.46 12.011,96.19 12.011,144.27 0,240.46"
             id="path3250"
             style="fill:#e61d25;fill-opacity:1;fill-rule:nonzero;stroke:none" />
        </g>
      </g>
    </g>
    <g
       transform="matrix(0.00580886,0.00137857,0.00150203,-0.00632906,408.5076,453.70551)"
       id="g3252">
      <g
         id="g3254">
        <g
           clip-path="url(#clipPath18)"
           id="g3256">
          <path
             d="M 609.363,260.988 C 594.934,236.961 580.535,224.93 558.887,224.93 l -40.879,0 c -31.25,0 -57.696,33.66 -38.465,67.32 l 1026.217,1579.7 c 14.4,24.03 31.24,36.08 52.85,36.08 l 36.09,0 c 31.28,0 55.31,-33.68 38.49,-67.32 L 609.363,260.988"
             id="path3258"
             style="fill:#e61d25;fill-opacity:1;fill-rule:nonzero;stroke:none" />
          <path
             d="m 1540.35,394.25 c 64.24,0 113.79,55.031 121.14,118.25 10.56,84.309 10.56,157.719 0,242.02 -7.35,63.23 -56.9,112.351 -121.14,112.351 l -119.53,0 c -6.32,0 -10.53,-4.223 -10.53,-10.543 l 0,-451.539 c 0,-6.32 4.21,-10.539 10.53,-10.539 4.2,0 119.53,0 119.53,0 z m -253.72,-99.672 0,671.961 c 0,11.602 9.46,21.07 21.08,21.07 l 256.18,0 c 122.19,0 206.5,-90.218 221.27,-212.461 10.55,-84.308 9.5,-198.976 0,-283.289 C 1771.46,370.68 1686.08,273.52 1563.89,273.52 l -256.18,0 c -11.62,0 -21.08,9.5 -21.08,21.058"
             id="path3260"
             style="fill:#e61d25;fill-opacity:1;fill-rule:nonzero;stroke:none" />
          <path
             d="m 741.738,1341.52 c -9.636,-67.33 -60.117,-122.62 -134.66,-122.62 -86.551,0 -125.047,67.32 -134.644,122.62 -12.024,74.54 -12.024,168.31 0,247.66 9.597,64.92 60.105,117.82 134.644,117.82 86.555,0 127.434,-67.33 134.66,-117.82 12.012,-79.35 12.012,-173.12 0,-247.66 z m 134.649,242.86 c -19.239,153.88 -125.059,252.45 -269.309,252.45 -158.68,0 -254.871,-122.62 -271.719,-252.45 -11.98,-96.19 -11.98,-144.27 0,-240.46 19.27,-156.29 127.434,-252.46 271.719,-252.46 158.684,0 254.875,120.22 269.309,252.46 12.011,96.19 12.011,144.27 0,240.46"
             id="path3262"
             style="fill:#e61d25;fill-opacity:1;fill-rule:nonzero;stroke:none" />
        </g>
      </g>
    </g>
    <g
       transform="matrix(0.01727146,0.0040989,0.00446599,-0.01881819,406.23274,486.37383)"
       id="g3264">
      <g
         id="g3266">
        <g
           clip-path="url(#clipPath18)"
           id="g3268">
          <path
             d="M 609.363,260.988 C 594.934,236.961 580.535,224.93 558.887,224.93 l -40.879,0 c -31.25,0 -57.696,33.66 -38.465,67.32 l 1026.217,1579.7 c 14.4,24.03 31.24,36.08 52.85,36.08 l 36.09,0 c 31.28,0 55.31,-33.68 38.49,-67.32 L 609.363,260.988"
             id="path3270"
             style="fill:#e61d25;fill-opacity:1;fill-rule:nonzero;stroke:none" />
          <path
             d="m 1540.35,394.25 c 64.24,0 113.79,55.031 121.14,118.25 10.56,84.309 10.56,157.719 0,242.02 -7.35,63.23 -56.9,112.351 -121.14,112.351 l -119.53,0 c -6.32,0 -10.53,-4.223 -10.53,-10.543 l 0,-451.539 c 0,-6.32 4.21,-10.539 10.53,-10.539 4.2,0 119.53,0 119.53,0 z m -253.72,-99.672 0,671.961 c 0,11.602 9.46,21.07 21.08,21.07 l 256.18,0 c 122.19,0 206.5,-90.218 221.27,-212.461 10.55,-84.308 9.5,-198.976 0,-283.289 C 1771.46,370.68 1686.08,273.52 1563.89,273.52 l -256.18,0 c -11.62,0 -21.08,9.5 -21.08,21.058"
             id="path3272"
             style="fill:#e61d25;fill-opacity:1;fill-rule:nonzero;stroke:none" />
          <path
             d="m 741.738,1341.52 c -9.636,-67.33 -60.117,-122.62 -134.66,-122.62 -86.551,0 -125.047,67.32 -134.644,122.62 -12.024,74.54 -12.024,168.31 0,247.66 9.597,64.92 60.105,117.82 134.644,117.82 86.555,0 127.434,-67.33 134.66,-117.82 12.012,-79.35 12.012,-173.12 0,-247.66 z m 134.649,242.86 c -19.239,153.88 -125.059,252.45 -269.309,252.45 -158.68,0 -254.871,-122.62 -271.719,-252.45 -11.98,-96.19 -11.98,-144.27 0,-240.46 19.27,-156.29 127.434,-252.46 271.719,-252.46 158.684,0 254.875,120.22 269.309,252.46 12.011,96.19 12.011,144.27 0,240.46"
             id="path3274"
             style="fill:#e61d25;fill-opacity:1;fill-rule:nonzero;stroke:none" />
        </g>
      </g>
    </g>
    <g
       transform="matrix(0.00563697,0.00133778,0.00145759,-0.00614179,419.10061,503.03625)"
       id="g3276">
      <g
         id="g3278">
        <g
           clip-path="url(#clipPath18)"
           id="g3280">
          <path
             d="M 609.363,260.988 C 594.934,236.961 580.535,224.93 558.887,224.93 l -40.879,0 c -31.25,0 -57.696,33.66 -38.465,67.32 l 1026.217,1579.7 c 14.4,24.03 31.24,36.08 52.85,36.08 l 36.09,0 c 31.28,0 55.31,-33.68 38.49,-67.32 L 609.363,260.988"
             id="path3282"
             style="fill:#e61d25;fill-opacity:1;fill-rule:nonzero;stroke:none" />
          <path
             d="m 1540.35,394.25 c 64.24,0 113.79,55.031 121.14,118.25 10.56,84.309 10.56,157.719 0,242.02 -7.35,63.23 -56.9,112.351 -121.14,112.351 l -119.53,0 c -6.32,0 -10.53,-4.223 -10.53,-10.543 l 0,-451.539 c 0,-6.32 4.21,-10.539 10.53,-10.539 4.2,0 119.53,0 119.53,0 z m -253.72,-99.672 0,671.961 c 0,11.602 9.46,21.07 21.08,21.07 l 256.18,0 c 122.19,0 206.5,-90.218 221.27,-212.461 10.55,-84.308 9.5,-198.976 0,-283.289 C 1771.46,370.68 1686.08,273.52 1563.89,273.52 l -256.18,0 c -11.62,0 -21.08,9.5 -21.08,21.058"
             id="path3284"
             style="fill:#e61d25;fill-opacity:1;fill-rule:nonzero;stroke:none" />
          <path
             d="m 741.738,1341.52 c -9.636,-67.33 -60.117,-122.62 -134.66,-122.62 -86.551,0 -125.047,67.32 -134.644,122.62 -12.024,74.54 -12.024,168.31 0,247.66 9.597,64.92 60.105,117.82 134.644,117.82 86.555,0 127.434,-67.33 134.66,-117.82 12.012,-79.35 12.012,-173.12 0,-247.66 z m 134.649,242.86 c -19.239,153.88 -125.059,252.45 -269.309,252.45 -158.68,0 -254.871,-122.62 -271.719,-252.45 -11.98,-96.19 -11.98,-144.27 0,-240.46 19.27,-156.29 127.434,-252.46 271.719,-252.46 158.684,0 254.875,120.22 269.309,252.46 12.011,96.19 12.011,144.27 0,240.46"
             id="path3286"
             style="fill:#e61d25;fill-opacity:1;fill-rule:nonzero;stroke:none" />
        </g>
      </g>
    </g>
    <g
       transform="matrix(0.00563697,0.00133778,0.00145759,-0.00614179,364.10061,451.25054)"
       id="g3288">
      <g
         id="g3290">
        <g
           clip-path="url(#clipPath18)"
           id="g3292">
          <path
             d="M 609.363,260.988 C 594.934,236.961 580.535,224.93 558.887,224.93 l -40.879,0 c -31.25,0 -57.696,33.66 -38.465,67.32 l 1026.217,1579.7 c 14.4,24.03 31.24,36.08 52.85,36.08 l 36.09,0 c 31.28,0 55.31,-33.68 38.49,-67.32 L 609.363,260.988"
             id="path3294"
             style="fill:#e61d25;fill-opacity:1;fill-rule:nonzero;stroke:none" />
          <path
             d="m 1540.35,394.25 c 64.24,0 113.79,55.031 121.14,118.25 10.56,84.309 10.56,157.719 0,242.02 -7.35,63.23 -56.9,112.351 -121.14,112.351 l -119.53,0 c -6.32,0 -10.53,-4.223 -10.53,-10.543 l 0,-451.539 c 0,-6.32 4.21,-10.539 10.53,-10.539 4.2,0 119.53,0 119.53,0 z m -253.72,-99.672 0,671.961 c 0,11.602 9.46,21.07 21.08,21.07 l 256.18,0 c 122.19,0 206.5,-90.218 221.27,-212.461 10.55,-84.308 9.5,-198.976 0,-283.289 C 1771.46,370.68 1686.08,273.52 1563.89,273.52 l -256.18,0 c -11.62,0 -21.08,9.5 -21.08,21.058"
             id="path3296"
             style="fill:#e61d25;fill-opacity:1;fill-rule:nonzero;stroke:none" />
          <path
             d="m 741.738,1341.52 c -9.636,-67.33 -60.117,-122.62 -134.66,-122.62 -86.551,0 -125.047,67.32 -134.644,122.62 -12.024,74.54 -12.024,168.31 0,247.66 9.597,64.92 60.105,117.82 134.644,117.82 86.555,0 127.434,-67.33 134.66,-117.82 12.012,-79.35 12.012,-173.12 0,-247.66 z m 134.649,242.86 c -19.239,153.88 -125.059,252.45 -269.309,252.45 -158.68,0 -254.871,-122.62 -271.719,-252.45 -11.98,-96.19 -11.98,-144.27 0,-240.46 19.27,-156.29 127.434,-252.46 271.719,-252.46 158.684,0 254.875,120.22 269.309,252.46 12.011,96.19 12.011,144.27 0,240.46"
             id="path3298"
             style="fill:#e61d25;fill-opacity:1;fill-rule:nonzero;stroke:none" />
        </g>
      </g>
    </g>
  </g>
</svg>
